<svg id="Слой_1" data-name="Слой 1" xmlns="http://www.w3.org/2000/svg" viewBox="0 0 256.02 202.6"><defs><style>.cls-1{fill:#0fb5ef;}.cls-2{fill:none;stroke:#000;stroke-miterlimit:10;}</style></defs><title>css</title><path class="cls-1" d="M388,421.55,205.54,429.5a27.51,27.51,0,0,1-29.63-30.35l14.48-125a27.52,27.52,0,0,1,23.67-24.34l182.5-18.47a27.51,27.51,0,0,1,31.06,30L413.07,396.89A27.51,27.51,0,0,1,388,421.55Z" transform="translate(-171.74 -226.99)"/><path class="cls-2" d="M384.47,418,202,425.9a27.5,27.5,0,0,1-29.63-30.34l14.48-125a27.52,27.52,0,0,1,23.67-24.34l182.5-18.47a27.51,27.51,0,0,1,31.06,30L409.56,393.3A27.5,27.5,0,0,1,384.47,418Z" transform="translate(-171.74 -226.99)"/><path d="M265.52,364.14c-3.42,1.85-10.1,3.85-18.15,4.36-18.8,1.17-30.45-14.26-26.82-32.21,3.83-19,20.86-33.82,40.12-35.58,8.16-.75,13.06.53,15.12,1.49-1.2,2.86-1.81,4.27-3,7.09a27.59,27.59,0,0,0-12.82-1.51c-14.84,1.28-27.86,13.11-30.29,27.8-2.16,13.07,6.07,26.58,20.76,25.15,5-.48,10.76-1.68,14.49-3.6C265.14,359.9,265.26,361.31,265.52,364.14Z" transform="translate(-171.74 -226.99)"/><path d="M276.46,355A24.81,24.81,0,0,0,291,358.55c8.69-.53,14.45-5.62,15.56-12.47,1-6.34-2-9.89-10.16-12.56-9.87-3.2-15.86-8.23-14.31-17.26,1.93-11.28,12.57-18.83,23.68-19.91,6.67-.64,11.33.45,14,1.86-1.3,2.9-2,4.36-3.28,7.27a21.69,21.69,0,0,0-12-2c-8.92.86-13.07,6.57-13.76,11.05-.94,6.13,2.56,8.8,11,11.65,10.36,3.5,15.22,8.87,13.46,18.65-2.27,12.55-13.54,20.22-26,21.15-6.3.47-13.06-1.14-16.22-3.42C274.44,359.5,275.11,358,276.46,355Z" transform="translate(-171.74 -226.99)"/><path d="M324.3,352.09a23.59,23.59,0,0,0,14,3.55c8.33-.5,13.92-5.44,15.18-12.39,1.17-6.43-1.59-10.19-9.57-13-9.59-3.42-15.61-8.83-14-18.16,1.89-10.95,12.7-19.5,23.86-20.22,6.64-.42,11.49.62,14.18,2.09-1.39,2.92-2.1,4.4-3.5,7.37a21.3,21.3,0,0,0-12-2.23c-9,.76-13.16,6.6-13.87,11.26-1,6.38,2.5,9.21,10.77,12.3,10.13,3.78,14.59,9.51,12.53,19.46-2.53,12.18-13.06,19.83-25.32,20.75-6,.46-12.5-1-15.56-3.25C322.33,356.6,323,355.1,324.3,352.09Z" transform="translate(-171.74 -226.99)"/></svg>