<svg id="Слой_1" data-name="Слой 1" xmlns="http://www.w3.org/2000/svg" viewBox="0 0 260.78 243.79"><defs><style>.cls-1{fill:#f16529;}.cls-2{fill:none;stroke:#000;stroke-miterlimit:10;}</style></defs><title>html</title><path class="cls-1" d="M394.29,406.41,197.87,422.74a21.58,21.58,0,0,1-23.25-23.8l16.1-150.37a21.57,21.57,0,0,1,16.52-18.71l196.53-46.12a21.58,21.58,0,0,1,26.42,22.94L414,386.84A21.57,21.57,0,0,1,394.29,406.41Z" transform="translate(-169.5 -179.02)"/><path class="cls-2" d="M389.79,402.78,193.37,419.1a21.57,21.57,0,0,1-23.24-23.8l16.09-150.36a21.56,21.56,0,0,1,16.52-18.71l196.53-46.12a21.57,21.57,0,0,1,26.42,22.94l-16.2,180.16A21.58,21.58,0,0,1,389.79,402.78Z" transform="translate(-169.5 -179.02)"/><path d="M220.7,286.32c-1.11,9.3-2.3,18.58-3.46,27.87q13.32-1.54,26.64-3.19c1.11-9.34,2.21-18.68,3.18-28l7.19-1c-2.3,21.49-5,42.91-6.65,64.47l-7.25.72c.58-9.64,1.55-19.31,2.68-28.9q-13.32,1.56-26.66,3c-1.17,9.45-2.16,19-2.8,28.49l-7.12.69c1.79-21.2,4.62-42.25,7.29-63.36C216.52,286.83,217.91,286.67,220.7,286.32Z" transform="translate(-169.5 -179.02)"/><path d="M276.48,286.29c-6.79.95-10.18,1.43-16.93,2.35.32-3,.47-4.47.76-7.45q20.65-2.85,41.28-5.81c-.25,2.94-.38,4.42-.68,7.41-6.87,1-10.3,1.49-17.14,2.46-2.06,19.35-4.78,38.71-5.9,58.15l-7.26.74C271.72,324.8,274.41,305.54,276.48,286.29Z" transform="translate(-169.5 -179.02)"/><path d="M350.77,307c.9-10.21,1.83-20.43,2.94-30.62l-.26,0c-3.09,9.43-6.7,18.68-10.31,27.93-4.42,11.07-8.88,22.13-13.28,33.21l-5.4.59c-2.55-9.88-4.13-20-5.8-30-1.4-8.65-2.58-17.39-3.44-26.11l-.16,0c-1.24,10.28-2.91,20.5-4.56,30.73-1.56,9.17-3,18.41-4.13,27.65l-6.83.72c2.89-22.43,7.36-44.64,10.72-67l9.26-1.35c2.24,10.69,4.17,21.34,6,32.1,1.28,8.32,2.26,15.64,3,22.19l.24,0c2.06-6.67,5-14.45,8.57-23.71,4.68-11.68,9.3-23.39,13.76-35.16l9.29-1.35c-1,22.76-3.91,45.43-4.52,68.21l-6.91.77C349.15,326.17,350,316.57,350.77,307Z" transform="translate(-169.5 -179.02)"/><path d="M375.09,264.69l7.26-1c-2.1,21-5.38,41.83-8,62.76,9.31-1.06,13.94-1.59,23.14-2.66-.35,2.77-.51,4.1-.77,6.61q-15,1.75-30.05,3.45C368.77,310.69,372.82,287.8,375.09,264.69Z" transform="translate(-169.5 -179.02)"/></svg>