<svg id="Слой_1" data-name="Слой 1" xmlns="http://www.w3.org/2000/svg" viewBox="0 0 248.95 233.26"><defs><style>.cls-1{fill:#ffcf06;}.cls-2{fill:none;stroke:#000;stroke-miterlimit:10;}</style></defs><title>js</title><path class="cls-1" d="M387.09,402.46,203.57,417.72a23.28,23.28,0,0,1-25.07-25.67l14.94-139.62a23.28,23.28,0,0,1,17.83-20.18l183.63-43.1a23.28,23.28,0,0,1,28.5,24.75L408.34,381.35A23.26,23.26,0,0,1,387.09,402.46Z" transform="translate(-174.55 -184.54)"/><path class="cls-2" d="M383.77,399,200.25,414.23a23.28,23.28,0,0,1-25.07-25.68l14.94-139.61A23.28,23.28,0,0,1,208,228.76l183.63-43.1a23.28,23.28,0,0,1,28.5,24.75L405,377.86A23.26,23.26,0,0,1,383.77,399Z" transform="translate(-174.55 -184.54)"/><path d="M268.48,270.75l11.39-1.53c-1.08,17.56-2.37,35.11-3.68,52.66-1,16.79-11.21,30.18-28.49,31.46a38,38,0,0,1-12.51-1.13c1-3.77,1.43-5.6,2.37-9.16a29.32,29.32,0,0,0,9.82.76c11.4-1,17.72-10.36,17.67-21.49C266.29,305.13,267.47,288,268.48,270.75Z" transform="translate(-174.55 -184.54)"/><path d="M292.09,334a36.8,36.8,0,0,0,19.58,3.52c9-.82,18.76-6.55,19.58-16.29.64-7.48-4.43-11.69-15.57-13.79-9.47-1.78-22.43-7.19-21.13-19,1.6-14.57,15.63-24.74,29.7-26.58,9-1.18,15.69.13,19.65,1.89-1.54,4-2.32,5.88-3.87,9.6a33.8,33.8,0,0,0-16.78-1.93c-12.06,1.54-16.94,9-17.34,14.44-.56,7.44,4.35,10.3,16.17,12.91,10.75,2.37,22.46,7.67,21.45,20.46-1.28,16.08-18.35,27-33.21,28.14-8.27.61-17.28-1-21.64-3.67C290,339.65,290.72,337.72,292.09,334Z" transform="translate(-174.55 -184.54)"/></svg>